<?xml version="1.0" standalone="no"?>
<!DOCTYPE svg PUBLIC "-//W3C//DTD SVG 20010904//EN"
 "http://www.w3.org/TR/2001/REC-SVG-20010904/DTD/svg10.dtd">
<svg version="1.0" xmlns="http://www.w3.org/2000/svg"
 width="1024.000000pt" height="1024.000000pt" viewBox="0 0 1024.000000 1024.000000"
 preserveAspectRatio="xMidYMid meet">

<g transform="translate(0.000000,1024.000000) scale(0.100000,-0.100000)"
fill="#000000" stroke="none">
<path d="M3590 8165 c-255 -37 -468 -120 -695 -270 -333 -221 -588 -580 -688
-970 -54 -211 -52 -162 -52 -1460 0 -1335 -4 -1256 65 -1400 83 -171 227 -295
409 -349 91 -27 92 -31 66 -209 -46 -309 -150 -659 -268 -902 l-72 -150 0 -85
c0 -102 20 -153 84 -217 71 -70 102 -77 319 -70 103 4 233 14 290 22 534 77
951 323 1381 814 99 113 116 152 116 266 0 109 -23 164 -100 240 -66 67 -131
97 -221 103 -128 8 -154 -6 -339 -187 -88 -86 -187 -180 -220 -208 -162 -136
-384 -257 -360 -195 3 9 20 64 36 122 64 234 106 553 111 850 3 181 -7 216
-84 286 -51 47 -103 67 -238 89 -150 25 -194 40 -229 81 l-32 35 4 1132 3
1132 22 84 c87 326 330 587 637 684 175 55 335 59 516 13 163 -41 304 -123
427 -247 112 -115 180 -225 234 -379 47 -138 48 -154 48 -1491 0 -1383 -3
-1309 62 -1411 33 -53 79 -93 148 -129 39 -21 59 -24 150 -24 96 0 110 2 158
28 72 38 132 100 168 173 l29 59 5 1315 5 1315 27 96 c92 337 325 586 637 683
512 160 1038 -136 1193 -669 l23 -80 5 -1320 c4 -915 9 -1329 16 -1350 39
-108 125 -199 222 -235 45 -17 74 -21 137 -18 142 6 254 79 314 207 l26 56 0
1345 c0 1458 2 1388 -56 1597 -105 375 -362 723 -694 939 -377 245 -813 328
-1255 238 -315 -64 -660 -262 -885 -507 l-74 -82 -71 77 c-235 255 -571 445
-915 518 -131 28 -408 35 -545 15z"/>
</g>
</svg>
